<?xml version="1.0" standalone="no"?>
<!DOCTYPE svg PUBLIC "-//W3C//DTD SVG 20010904//EN"
 "http://www.w3.org/TR/2001/REC-SVG-20010904/DTD/svg10.dtd">
<svg version="1.0" xmlns="http://www.w3.org/2000/svg"
 width="34px" height="34px" viewBox="0 0 1024 1024"
 preserveAspectRatio="xMidYMid meet">

<g transform="translate(0.000000,1024.000000) scale(0.100000,-0.100000)"
fill="#000000" stroke="none">
<path fill="#1C2752" d="M3090 10070 c-645 -61 -1242 -302 -1745 -706 -502 -403 -893 -1000
-1070 -1633 -76 -275 -109 -520 -109 -833 -1 -224 0 -238 20 -264 44 -60 67
-69 185 -72 l109 -4 0 -240 0 -239 -56 -51 c-137 -126 -225 -289 -254 -469 -8
-53 -10 -285 -8 -804 3 -643 5 -737 20 -785 32 -108 60 -170 107 -242 137
-209 356 -341 604 -365 l67 -6 0 -106 c0 -170 38 -278 133 -379 55 -58 105
-91 190 -125 52 -22 58 -22 1014 -27 952 -5 962 -5 989 -26 53 -39 69 -71 69
-134 0 -63 -16 -95 -69 -134 -27 -21 -33 -21 -1389 -26 l-1362 -5 -52 -22
c-85 -34 -135 -67 -190 -125 -176 -187 -176 -469 0 -656 55 -58 105 -91 190
-125 l52 -22 1295 -5 1295 -5 51 -27 c76 -40 107 -70 145 -140 31 -58 34 -70
34 -148 0 -78 -3 -90 -34 -148 -19 -35 -48 -74 -64 -88 -44 -37 -117 -71 -169
-79 l-46 -7 -4 110 c-3 120 -12 142 -72 186 -27 21 -34 21 -966 21 -932 0
-939 0 -966 -21 -60 -44 -69 -67 -72 -185 l-4 -109 -399 0 -399 0 0 -160 0
-160 399 0 399 0 4 -109 c3 -118 12 -141 72 -185 27 -21 34 -21 966 -21 932 0
939 0 966 21 60 44 69 67 72 185 l4 109 31 0 c132 1 305 79 411 185 123 122
183 253 193 420 17 291 -163 550 -450 649 -62 21 -70 21 -1354 26 -1285 5
-1292 5 -1319 26 -53 39 -69 71 -69 134 0 63 16 95 69 134 27 21 33 21 1389
26 l1362 5 52 22 c85 34 135 67 190 125 176 187 176 469 0 656 -55 58 -105 91
-190 125 -52 22 -58 22 -1014 27 -952 5 -962 5 -989 26 -60 44 -69 67 -72 185
l-4 109 109 0 c174 0 280 38 384 137 31 29 71 80 88 112 59 111 61 133 61 603
l0 428 178 0 177 0 69 -278 c68 -273 70 -277 107 -314 63 -61 149 -63 214 -7
18 16 38 44 44 62 6 18 56 236 111 486 55 250 102 456 104 458 2 2 34 -72 71
-164 37 -92 76 -179 88 -192 44 -47 69 -51 342 -51 l255 0 0 160 0 160 -187 2
-187 3 -143 360 c-156 390 -171 416 -247 431 -79 14 -163 -30 -185 -99 -6 -18
-47 -196 -91 -397 -44 -201 -83 -371 -85 -378 -3 -9 -14 -3 -32 19 -47 56 -66
59 -348 59 l-255 0 0 428 c0 463 -2 488 -56 594 -36 71 -123 159 -193 197
-106 56 -144 61 -481 61 -168 -1 -324 -5 -347 -9 l-43 -8 0 167 0 168 109 4
c118 3 141 12 185 72 19 25 22 47 28 249 3 122 14 269 23 327 76 487 290 908
634 1250 350 349 760 556 1256 637 153 24 496 24 650 0 148 -24 327 -70 444
-114 690 -257 1213 -831 1395 -1533 51 -198 67 -319 74 -567 6 -202 9 -224 28
-249 44 -60 67 -69 185 -72 l109 -4 0 -158 0 -159 -627 -3 c-676 -4 -645 -2
-795 -58 -78 -29 -194 -106 -263 -175 -102 -103 -169 -222 -213 -380 -16 -55
-17 -248 -17 -2425 0 -2588 -4 -2384 55 -2542 66 -178 260 -372 438 -438 158
-59 -46 -55 2542 -55 2588 0 2384 -4 2542 55 178 66 372 260 438 438 59 158
55 -46 55 2542 0 2588 4 2384 -55 2542 -66 177 -261 372 -438 438 -157 59 -22
55 -1754 58 l-1588 2 0 159 0 159 109 4 c118 3 141 12 185 72 19 24 21 44 24
184 14 641 -174 1288 -529 1822 -131 196 -248 339 -409 500 -504 505 -1144
819 -1860 915 -137 19 -536 27 -670 15z m515 -321 c1229 -107 2255 -985 2550
-2180 50 -202 85 -462 85 -626 l0 -63 -160 0 -160 0 0 58 c0 228 -61 552 -151
806 -47 133 -163 373 -235 486 -197 311 -468 588 -774 791 -129 86 -409 226
-550 274 -593 204 -1223 191 -1792 -36 -330 -131 -602 -312 -864 -573 -224
-225 -366 -423 -500 -701 -149 -309 -232 -631 -250 -977 l-7 -128 -159 0 -158
0 0 63 c0 96 19 290 41 417 251 1474 1600 2519 3084 2389z m-2079 -3855 c15
-11 37 -33 48 -48 21 -27 21 -33 21 -1046 0 -1013 0 -1019 -21 -1046 -11 -15
-33 -37 -48 -48 -26 -20 -43 -21 -318 -24 -187 -2 -310 1 -344 8 -176 37 -323
179 -369 357 -22 85 -22 1421 0 1506 44 171 176 305 346 351 43 12 116 15 356
13 287 -2 303 -3 329 -23z m7867 11 c173 -45 307 -178 352 -350 13 -52 15
-326 15 -2355 0 -2529 5 -2347 -61 -2471 -38 -70 -126 -157 -197 -193 -118
-60 43 -56 -2462 -56 -2505 0 -2344 -4 -2462 56 -71 36 -159 123 -197 193 -66
124 -61 -58 -61 2471 0 2003 2 2303 15 2353 45 171 177 306 346 351 83 22
4627 23 4712 1z m-6673 -5265 l0 -160 -720 0 -720 0 0 160 0 160 720 0 720 0
0 -160z"/>
<path fill="#1C2752" d="M9001 5744 c-253 -68 -410 -331 -346 -579 9 -32 30 -85 47 -117 34
-63 129 -159 185 -186 32 -15 34 -19 28 -50 -3 -19 -11 -45 -16 -59 l-9 -25
-42 48 c-22 27 -81 89 -131 137 -937 921 -2441 913 -3372 -18 -938 -938 -938
-2456 1 -3391 762 -758 1913 -921 2855 -403 522 287 930 780 1117 1351 196
598 154 1218 -123 1798 l-64 135 57 214 c35 127 64 218 73 222 8 4 41 20 74
35 74 34 172 129 209 202 96 189 65 400 -81 553 -118 124 -300 177 -462 133z
m182 -318 c103 -43 128 -177 48 -257 -112 -113 -296 -12 -267 146 18 94 128
150 219 111z m-1942 -157 c498 -51 943 -267 1290 -626 109 -113 236 -273 245
-310 3 -12 -90 -379 -221 -873 -125 -468 -225 -853 -222 -856 6 -6 299 -86
301 -82 2 2 83 306 182 676 98 369 182 672 185 672 10 0 58 -169 79 -275 87
-452 27 -902 -175 -1310 -204 -413 -527 -737 -942 -946 -653 -328 -1447 -282
-2058 121 -142 94 -236 172 -365 306 -119 124 -193 219 -276 355 -441 723
-396 1648 114 2328 71 95 243 273 343 357 412 344 985 518 1520 463z"/>
<path fill="#1C2752" d="M6860 4305 c-296 -47 -579 -229 -747 -480 -329 -490 -224 -1148 241
-1507 427 -330 1012 -313 1425 41 192 166 333 430 371 696 53 376 -108 776
-411 1018 -245 196 -567 281 -879 232z m370 -328 c207 -57 368 -172 481 -345
88 -134 124 -258 124 -432 0 -226 -75 -408 -231 -564 -310 -310 -812 -312
-1123 -5 -161 159 -236 340 -236 569 0 175 36 297 125 434 118 181 302 305
520 352 80 17 262 12 340 -9z"/>
<path fill="#1C2752" d="M6921 3664 c-253 -68 -410 -331 -346 -579 67 -256 329 -415 580 -350
256 67 415 329 350 578 -67 259 -333 419 -584 351z m182 -318 c103 -43 128
-177 48 -257 -112 -113 -296 -12 -267 146 18 94 128 150 219 111z"/>
</g>
</svg>
