<?xml version="1.0" encoding="utf-8"?>
<!-- Generator: Adobe Illustrator 25.2.3, SVG Export Plug-In . SVG Version: 6.00 Build 0)  -->
<svg version="1.1" xmlns="http://www.w3.org/2000/svg" xmlns:xlink="http://www.w3.org/1999/xlink" x="0px" y="0px"
	 viewBox="0 0 800 800" style="enable-background:new 0 0 800 800;" xml:space="preserve">
<style type="text/css">
	.st0{fill-rule:evenodd;clip-rule:evenodd;fill-opacity:0.1789;}
	.st1{fill-rule:evenodd;clip-rule:evenodd;}
	.st2{opacity:0.5046;fill:none;stroke:#FFFFFF;stroke-width:2.3386;stroke-opacity:0.7474;enable-background:new    ;}
	.st3{opacity:0.5046;fill:none;stroke:#FFFFFF;stroke-width:2.4822;stroke-opacity:0.7474;enable-background:new    ;}
	.st4{opacity:0.5046;fill:none;stroke:#FFFFFF;stroke-width:2.6677;stroke-opacity:0.7474;enable-background:new    ;}
	.st5{opacity:0.5046;fill:none;stroke:#FFFFFF;stroke-width:2.951;stroke-opacity:0.7474;enable-background:new    ;}
	.st6{opacity:0.5046;fill:none;stroke:#FFFFFF;stroke-width:3.3014;stroke-opacity:0.7474;enable-background:new    ;}
	.st7{opacity:0.5046;fill:none;stroke:#FFFFFF;stroke-width:3.7236;stroke-opacity:0.7474;enable-background:new    ;}
	.st8{opacity:0.5046;fill:none;stroke:#FFFFFF;stroke-width:4.2151;stroke-opacity:0.7474;enable-background:new    ;}
	.st9{opacity:0.5046;fill:none;stroke:#FFFFFF;stroke-width:4.8177;stroke-opacity:0.7474;enable-background:new    ;}
	.st10{opacity:0.5046;fill:none;stroke:#FFFFFF;stroke-width:5.7274;stroke-opacity:0.7474;enable-background:new    ;}
	.st11{fill-rule:evenodd;clip-rule:evenodd;fill:#FFFFFF;stroke:#FFFFFF;stroke-width:1.5;}
	.st12{fill-rule:evenodd;clip-rule:evenodd;stroke:#FFFFFF;stroke-width:4.628835e-02;stroke-miterlimit:10;}
</style>
<g id="svg2" xmlns:svg="http://www.w3.org/2000/svg">
	<g id="layer1">
		<path id="path4581" class="st0" d="M786.5,413.6c0,206.7-167.5,374.3-374.2,374.4S38,620.5,37.9,413.7c0-0.1,0-0.1,0-0.2
			c0-206.7,167.5-374.3,374.2-374.4c206.7,0,374.3,167.5,374.4,374.2C786.5,413.5,786.5,413.5,786.5,413.6z"/>
		<path id="path1872" class="st1" d="M774.3,400c0,206.7-167.5,374.3-374.2,374.4S25.8,606.9,25.7,400.2c0-0.1,0-0.1,0-0.2
			c0-206.7,167.5-374.3,374.2-374.4s374.3,167.5,374.4,374.2C774.3,399.9,774.3,399.9,774.3,400z"/>
		<path id="path1898" class="st2" d="M751.5,400c0,195.7-157.3,354.4-351.4,354.4C206,754.5,48.6,595.9,48.5,400.2
			c0-0.1,0-0.1,0-0.2c0-195.7,157.3-354.4,351.4-354.4c194.1,0,351.5,158.6,351.6,354.2C751.5,399.9,751.5,399.9,751.5,400z"/>
		<path id="path3678" class="st3" d="M400,66.2C217.2,66.2,68.9,215.7,68.9,400S217.2,733.8,400,733.8S731.1,584.3,731.1,400
			S582.8,66.2,400,66.2z"/>
		<path id="path3680" class="st4" d="M400,89.4C229.9,89.4,91.9,228.5,91.9,400s138,310.6,308.1,310.6S708.1,571.5,708.1,400
			S570.1,89.4,400,89.4z"/>
		<path id="path3682" class="st5" d="M400,119.2C246.2,119.2,121.5,245,121.5,400S246.2,680.8,400,680.8S678.5,555,678.5,400
			S553.8,119.2,400,119.2z"/>
		<path id="path3684" class="st6" d="M400,149c-137.4,0-249,112.4-249,251s111.5,251,249,251s249-112.4,249-251S537.4,149,400,149z"
			/>
		<path id="path3686" class="st7" d="M400,177.5c-121.9,0-220.7,99.7-220.7,222.5S278.1,622.5,400,622.5S620.7,522.8,620.7,400
			S521.9,177.5,400,177.5z"/>
		<path id="path3688" class="st8" d="M400,203.4c-107.6,0-195,88.1-195,196.6s87.4,196.6,195,196.6S595,508.5,595,400
			S507.6,203.4,400,203.4z"/>
		<path id="path3690" class="st9" d="M400,228c-94.2,0-170.6,77.1-170.6,172S305.8,572,400,572s170.6-77.1,170.6-172
			S494.2,228,400,228z"/>
		<path id="path3692" class="st10" d="M400,255.3c-79.2,0-143.5,64.8-143.5,144.7S320.8,544.7,400,544.7S543.5,479.9,543.5,400
			S479.2,255.3,400,255.3z"/>
		<path id="path3694" class="st11" d="M400,284c-63.5,0-115.1,52-115.1,116S336.5,516,400,516s115.1-52,115.1-116S463.5,284,400,284
			z"/>
		<path id="path6353" class="st12" d="M400,388.4c-6.4,0-11.5,5.2-11.5,11.6s5.2,11.6,11.5,11.6c6.4,0,11.5-5.2,11.5-11.6
			S406.4,388.4,400,388.4z"/>
	</g>
</g>
<g id="Layer_2">
	<g>
		<path d="M346.3,472.3h11.2c0.7-0.6,1.1-1.2,1.1-2c0-0.6-0.1-1.2-0.4-1.6c-0.3-0.5-0.7-0.9-1.2-1.3c-0.9-0.7-2-1.3-3.3-1.9
			c-1.3-0.6-2.6-1.3-3.8-2c-1.2-0.8-2.3-1.7-3.1-2.9s-1.3-2.6-1.3-4.4c0-3.4,1.6-6,4.7-7.8h11v5.3h-8.9c-0.8,0.5-1.2,1.2-1.2,2.1
			s0.3,1.7,0.8,2.3c0.5,0.6,1.1,1.1,1.9,1.6c0.8,0.5,1.6,0.9,2.6,1.4c0.9,0.5,1.8,1,2.8,1.5c0.9,0.5,1.8,1.2,2.5,1.9
			c0.8,0.7,1.4,1.6,1.8,2.6c0.5,1,0.7,2.2,0.7,3.6c0,2.9-1.4,5.3-4.3,7h-13.3V472.3z"/>
		<path d="M381.1,477.7h-10.3v-24.3h-2.9v-5h2.9v-8.7h5.3v8.7h5v5h-5v18.9h5V477.7z"/>
		<path d="M398.1,478c-1.8,0-3.5-0.4-5.1-1.1c-1.6-0.7-3-1.7-4.2-3c-1.2-1.3-2.1-2.8-2.8-4.7c-0.7-1.8-1.1-3.9-1.1-6.2
			c0-2.3,0.4-4.5,1.1-6.4c0.7-1.9,1.7-3.5,2.8-4.8c1.2-1.3,2.6-2.3,4.2-3c1.6-0.7,3.3-1.1,5.1-1.1c1.7,0,3.3,0.4,4.8,1.1
			c1.6,0.7,2.9,1.7,4.2,3c1.2,1.3,2.2,2.9,3,4.8c0.8,1.9,1.1,4,1.1,6.4c0,2.3-0.4,4.3-1.1,6.2c-0.8,1.8-1.7,3.4-3,4.7
			c-1.2,1.3-2.6,2.3-4.2,3C401.4,477.7,399.8,478,398.1,478z M398.1,452.9c-0.9,0-1.8,0.2-2.7,0.5c-0.9,0.3-1.7,0.9-2.5,1.7
			c-0.7,0.8-1.3,1.8-1.8,3c-0.5,1.2-0.7,2.7-0.7,4.5c0,1.8,0.2,3.3,0.7,4.6c0.5,1.2,1,2.3,1.8,3.1c0.7,0.8,1.5,1.4,2.5,1.8
			c0.9,0.4,1.8,0.5,2.7,0.5c0.8,0,1.6-0.2,2.5-0.5c0.9-0.4,1.7-1,2.5-1.8c0.7-0.8,1.4-1.8,1.8-3.1c0.5-1.2,0.7-2.8,0.7-4.6
			c0-1.8-0.2-3.3-0.7-4.5c-0.5-1.2-1.1-2.2-1.8-3c-0.7-0.8-1.6-1.3-2.5-1.7C399.7,453.1,398.9,452.9,398.1,452.9z"/>
		<path d="M428.6,448.3v5.3h-6.2v24H417v-29.3H428.6z"/>
		<path d="M437.6,466c0.2,1.3,0.6,2.6,1,3.7c0.4,1.1,1,2.1,1.7,3h11.1v5h-13.5c-1.6-1.6-2.9-3.7-4.1-6.4c-1.2-2.7-1.8-5.7-1.8-9.2
			c0-4.9,1-8.5,3-10.8s4.8-3.5,8.3-3.5c1.8,0,3.3,0.3,4.7,1c1.4,0.7,2.6,1.6,3.5,2.8c1,1.2,1.7,2.7,2.2,4.4c0.5,1.7,0.8,3.6,0.8,5.7
			c0,0.8,0,1.5-0.1,2.2c-0.1,0.7-0.2,1.4-0.3,2.1H437.6z M443.5,452.8c-1.1,0-2.1,0.2-2.8,0.7c-0.8,0.4-1.4,1-1.9,1.8
			c-0.5,0.8-0.9,1.7-1.1,2.7c-0.2,1-0.4,2.1-0.4,3.4h12.1c0-2.5-0.5-4.5-1.4-6.1C447,453.6,445.6,452.8,443.5,452.8z"/>
	</g>
	<g>
		<path d="M343.1,330.5v5.3h-6.2v24h-5.3v-29.3H343.1z"/>
		<path d="M352.1,348.2c0.2,1.3,0.6,2.6,1,3.7c0.4,1.1,1,2.1,1.7,3h11.1v5h-13.5c-1.6-1.6-2.9-3.7-4.1-6.4c-1.2-2.7-1.8-5.7-1.8-9.2
			c0-4.9,1-8.5,3-10.8s4.8-3.5,8.3-3.5c1.8,0,3.3,0.3,4.7,1c1.4,0.7,2.6,1.6,3.5,2.8c1,1.2,1.7,2.7,2.2,4.4c0.5,1.7,0.8,3.6,0.8,5.7
			c0,0.8,0,1.5-0.1,2.2c-0.1,0.7-0.2,1.4-0.3,2.1H352.1z M358.1,335c-1.1,0-2.1,0.2-2.8,0.7c-0.8,0.4-1.4,1-1.9,1.8
			c-0.5,0.8-0.9,1.7-1.1,2.7c-0.2,1-0.4,2.1-0.4,3.4h12.1c0-2.5-0.5-4.5-1.4-6.1C361.6,335.8,360.1,335,358.1,335z"/>
		<path d="M373.8,345.2c0-1.4,0.2-2.8,0.5-4.2c0.3-1.5,0.9-2.8,1.6-4.2c0.8-1.3,1.8-2.5,3-3.6c1.2-1.1,2.8-2,4.6-2.7h9.2v5.5h-8.1
			c-0.6,0.4-1.3,0.8-1.9,1.4c-0.6,0.5-1.1,1.1-1.6,1.9c-0.5,0.7-0.8,1.6-1.1,2.5s-0.4,2.1-0.4,3.3c0,1.6,0.2,2.9,0.5,3.9
			c0.4,1,0.8,1.9,1.4,2.6c0.6,0.7,1.2,1.2,1.9,1.7c0.7,0.4,1.3,0.8,2,1.2h7.6v5.4h-8.8c-1.8-0.6-3.3-1.4-4.6-2.4
			c-1.3-1-2.4-2.2-3.2-3.5c-0.9-1.3-1.5-2.7-1.9-4.2C374,348.1,373.8,346.7,373.8,345.2z"/>
		<path d="M411.8,360.2c-1.8,0-3.5-0.4-5.1-1.1c-1.6-0.7-3-1.7-4.2-3c-1.2-1.3-2.1-2.8-2.8-4.7c-0.7-1.8-1.1-3.9-1.1-6.2
			c0-2.3,0.4-4.5,1.1-6.4c0.7-1.9,1.7-3.5,2.8-4.8c1.2-1.3,2.6-2.3,4.2-3c1.6-0.7,3.3-1.1,5.1-1.1c1.7,0,3.3,0.4,4.8,1.1
			c1.6,0.7,2.9,1.7,4.2,3c1.2,1.3,2.2,2.9,3,4.8c0.8,1.9,1.1,4,1.1,6.4c0,2.3-0.4,4.3-1.1,6.2c-0.8,1.8-1.7,3.4-3,4.7
			c-1.2,1.3-2.6,2.3-4.2,3C415.1,359.9,413.5,360.2,411.8,360.2z M411.8,335.1c-0.9,0-1.8,0.2-2.7,0.5c-0.9,0.3-1.7,0.9-2.5,1.7
			c-0.7,0.8-1.3,1.8-1.8,3c-0.5,1.2-0.7,2.7-0.7,4.5c0,1.8,0.2,3.3,0.7,4.6c0.5,1.2,1,2.3,1.8,3.1c0.7,0.8,1.5,1.4,2.5,1.8
			c0.9,0.4,1.8,0.5,2.7,0.5c0.8,0,1.6-0.2,2.5-0.5c0.9-0.4,1.7-1,2.5-1.8c0.7-0.8,1.4-1.8,1.8-3.1c0.5-1.2,0.7-2.8,0.7-4.6
			c0-1.8-0.2-3.3-0.7-4.5c-0.5-1.2-1.1-2.2-1.8-3c-0.7-0.8-1.6-1.3-2.5-1.7C413.4,335.3,412.6,335.1,411.8,335.1z"/>
		<path d="M442.3,330.5v5.3h-6.2v24h-5.3v-29.3H442.3z"/>
		<path d="M445.3,345.2c0-2.5,0.4-4.6,1.2-6.4s1.7-3.2,2.8-4.3s2.2-2,3.3-2.7c1.1-0.6,2-1.1,2.7-1.3h7.6v-10.7h5.5v40H454
			c-0.5-0.2-1.3-0.7-2.3-1.4c-1-0.7-1.9-1.7-2.9-2.9c-0.9-1.2-1.8-2.7-2.5-4.4C445.7,349.5,445.3,347.5,445.3,345.2z M462.9,335.8
			h-6.4c-0.4,0.1-1,0.5-1.7,0.9c-0.7,0.5-1.3,1.1-1.9,1.9c-0.6,0.8-1.2,1.8-1.6,2.8c-0.4,1.1-0.7,2.3-0.7,3.6c0,1.2,0.2,2.3,0.6,3.4
			c0.4,1,0.9,2,1.4,2.8c0.5,0.8,1.1,1.5,1.7,2c0.6,0.5,1,0.9,1.3,1.1h7.3V335.8z"/>
	</g>
</g>
</svg>
