 <svg version="1.0" xmlns="http://www.w3.org/2000/svg" width="300.000000pt" height="340.000000pt" viewBox="0 0 300.000000 340.000000" preserveAspectRatio="xMidYMid meet">  <g transform="translate(0.000000,340.000000) scale(0.050000,-0.050000)" fill="#0000ff" stroke="none"> <path d="M4640 6005 l-790 -5 -795 -795 -795 -795 1 -200 1 -200 169 334 169 335 85 -12 c47 -6 91 -21 98 -31 7 -13 17 -12 26 2 7 12 23 22 35 22 13 0 12 -11 -4 -30 -20 -24 -19 -30 6 -30 17 0 46 -15 65 -34 18 -18 56 -34 83 -35 27 -2 58 -18 69 -37 11 -19 30 -29 43 -21 13 7 6 -5 -16 -27 -22 -23 -47 -37 -55 -32 -8 4 -15 -2 -15 -15 0 -13 -13 -18 -29 -12 -15 6 -39 -2 -52 -18 -13 -16 -32 -24 -41 -18 -10 6 -18 1 -18 -12 0 -17 -10 -16 -34 4 -23 18 -29 19 -19 2 10 -15 4 -25 -13 -25 -59 0 -160 -64 -131 -83 20 -14 17 -18 -13 -14 -40 4 -139 -44 -217 -107 -50 -41 -44 -39 234 50 87 28 171 46 188 39 21 -8 27 -4 17 12 -10 16 5 23 48 23 36 0 57 8 50 20 -7 11 7 20 30 20 24 0 61 10 83 21 22 12 66 22 98 23 31 1 53 10 47 19 -6 9 15 17 46 17 80 1 147 22 135 42 -23 37 31 16 75 -29 84 -87 100 -129 55 -143 -21 -7 -39 -22 -39 -33 0 -10 -7 -15 -17 -9 -9 5 -44 -23 -77 -64 -34 -41 -84 -97 -111 -124 -27 -28 -60 -71 -74 -97 -74 -142 -26 6 67 204 92 195 102 227 63 198 -25 -19 -42 -46 -36 -60 5 -14 -6 -25 -24 -25 -18 0 -28 -9 -21 -20 7 -11 -2 -26 -19 -32 -17 -7 -31 -25 -31 -40 0 -15 -13 -28 -30 -28 -19 0 -30 -19 -30 -50 0 -27 -10 -50 -21 -50 -12 0 -16 -8 -10 -19 7 -10 -3 -27 -22 -38 -37 -20 -47 -65 -47 -200 1 -110 14 -113 -464 99 l-363 161 -392 -392 -391 -391 600 0 599 0 208 205 208 205 -13 -290 c-6 -159 -12 -342 -12 -405 l0 -115 -422 0 -423 0 -372 192 -373 193 -190 205 c-104 113 -197 207 -205 208 -8 1 -15 -363 -15 -810 l0 -812 149 7 c160 8 178 15 160 62 -11 28 -62 45 -179 61 -31 4 -39 18 -36 62 4 60 301 992 316 992 5 0 181 -259 392 -575 l384 -575 -391 -5 -391 -6 -202 -603 c-111 -331 -200 -605 -196 -608 3 -3 82 34 175 83 93 49 268 137 389 196 194 95 245 131 437 314 l217 207 -7 586 c-4 322 -2 586 3 585 6 0 46 -48 89 -105 138 -181 775 -974 791 -984 7 -5 61 50 118 121 102 127 102 129 50 129 -30 0 -66 -16 -80 -35 -25 -33 -27 -33 -27 -1 -1 22 -12 31 -30 24 -16 -7 -48 12 -75 42 -77 90 -144 157 -217 218 -56 48 -61 57 -24 47 25 -6 40 -3 34 7 -15 24 -6 23 80 -13 188 -79 271 -107 270 -94 0 8 -38 32 -85 53 -46 21 -119 55 -163 75 -43 20 -90 37 -105 37 -14 0 -26 10 -26 21 0 12 -9 16 -20 9 -11 -7 -20 -4 -20 6 0 11 -40 29 -90 42 -49 12 -90 31 -90 40 0 27 384 385 398 371 7 -7 98 -185 204 -396 l192 -383 461 -10 c254 -5 467 -15 473 -21 13 -13 -1077 -279 -1142 -279 -87 0 -62 -44 228 -410 163 -205 313 -396 333 -426 l38 -54 536 0 c363 0 531 7 522 21 -7 11 -69 103 -138 204 l-125 183 -385 -190 -385 -190 -12 96 c-6 53 -14 78 -16 56 -3 -30 -14 -20 -44 40 -22 44 -154 191 -294 327 -292 285 -282 290 85 45 l267 -178 287 371 c180 233 289 359 293 338 4 -18 14 -33 23 -33 9 0 55 -154 101 -342 80 -320 88 -341 128 -330 23 6 122 12 219 12 105 0 174 8 170 19 -4 11 -142 183 -307 382 l-300 363 -323 218 c-206 139 -452 282 -683 396 -400 199 -404 202 -334 254 36 27 50 57 51 108 l1 70 32 -60 c23 -42 36 -51 42 -31 6 16 0 32 -13 37 -28 9 -31 64 -3 64 11 0 20 -13 20 -30 0 -16 9 -30 20 -30 10 0 25 -22 32 -50 7 -28 23 -50 35 -51 13 0 68 -50 123 -111 55 -61 153 -157 217 -214 l118 -102 -189 309 c-104 170 -268 435 -364 588 l-174 280 56 39 c31 21 297 278 591 570 l535 532 0 400 0 401 370 184 c355 177 426 207 401 167 -6 -10 0 -22 14 -27 20 -7 20 -15 0 -38 -13 -17 -17 -38 -9 -48 8 -11 11 -17 7 -15 -4 2 -25 -13 -47 -34 -22 -20 -52 -33 -65 -27 -15 5 -99 -98 -208 -257 -100 -146 -212 -299 -249 -338 -78 -84 -202 -296 -184 -314 6 -7 273 249 593 569 320 320 574 585 564 589 -9 5 -372 6 -807 3z m-468 -319 c71 -87 79 -146 19 -146 -36 0 -45 -216 -12 -278 11 -20 25 -98 31 -174 12 -131 11 -135 -16 -78 -106 218 -326 892 -299 918 15 15 196 -143 277 -242z m-333 -120 c21 -23 33 -47 26 -54 -6 -7 1 -12 17 -13 19 0 17 -7 -8 -21 -35 -21 -35 -24 -2 -60 19 -21 30 -43 24 -49 -17 -17 -77 14 -65 33 6 10 -3 18 -20 18 -17 0 -29 11 -26 25 3 14 -6 23 -20 20 -14 -3 -23 6 -20 20 3 14 -8 23 -25 20 -23 -4 -22 1 5 22 37 29 49 64 15 43 -11 -7 -15 1 -8 17 15 39 59 30 107 -21z m-381 -444 l-2 -328 186 -186 c102 -103 182 -191 176 -197 -24 -24 -256 -22 -290 3 -20 14 -64 26 -100 26 -70 0 -640 272 -686 327 -25 30 -1 33 296 33 201 0 322 7 322 20 0 11 -16 20 -35 20 -30 1 -31 3 -5 20 31 20 8 23 -192 28 -101 2 -104 34 -14 132 135 147 209 249 261 361 75 159 86 126 83 -259z m202 258 c60 -55 116 -100 125 -100 8 0 15 -14 15 -31 0 -17 7 -27 15 -22 8 5 27 -4 41 -19 14 -15 21 -28 15 -28 -6 0 44 -56 110 -125 217 -224 210 -243 -105 -251 -304 -9 -298 -14 -299 267 -1 147 -10 233 -28 261 -18 29 -20 49 -6 63 14 14 14 25 -1 34 -25 15 -30 51 -7 51 9 0 65 -45 125 -100z m-1249 -1675 c28 -52 45 -77 38 -55 -39 117 -39 118 15 82 27 -18 55 -26 63 -19 7 8 13 3 13 -11 0 -13 8 -19 18 -13 10 6 22 2 25 -9 4 -11 30 -25 57 -30 27 -5 53 -19 57 -30 3 -11 21 -20 40 -20 25 -1 26 -5 7 -17 -14 -9 -20 -31 -12 -50 9 -25 4 -30 -20 -21 -25 10 -29 4 -19 -23 11 -28 6 -33 -19 -23 -24 9 -29 4 -20 -20 10 -25 5 -30 -20 -20 -18 7 -39 3 -46 -9 -9 -14 -19 -12 -30 6 -13 21 -17 18 -18 -10 0 -33 -5 -32 -41 10 -41 46 -41 46 -19 2 17 -37 16 -45 -9 -45 -17 0 -31 11 -31 25 -1 19 -4 19 -17 -1 -18 -28 -64 -26 -86 4 -7 9 -25 10 -40 0 -41 -26 -217 -26 -217 0 0 12 -9 9 -20 -8 -15 -23 -19 -24 -20 -3 0 20 -16 24 -55 15 -37 -9 -46 -7 -27 5 16 11 21 29 11 44 -10 16 -7 20 8 11 13 -8 23 -3 23 12 1 37 200 238 222 225 11 -7 17 -5 13 5 -3 9 3 17 13 19 10 2 25 16 35 30 14 22 21 22 37 -3 17 -26 19 -25 20 5 0 55 15 42 71 -60z m1088 -1230 c21 -20 24 -20 13 0 -8 14 -5 25 7 25 11 0 21 -10 21 -22 0 -13 18 -18 40 -12 37 9 50 -8 41 -54 -2 -10 11 -7 28 7 23 19 31 20 31 2 0 -13 36 -59 80 -101 46 -44 72 -83 60 -90 -11 -7 -16 -21 -10 -30 6 -10 -34 -17 -90 -17 -55 0 -105 9 -111 19 -7 10 -19 14 -28 9 -9 -6 -41 30 -72 79 -32 50 -65 90 -75 90 -11 0 -8 14 6 30 17 21 18 30 2 30 -12 0 -22 14 -22 30 0 36 42 39 79 5z m-1821 -594 c37 -19 204 -43 295 -41 74 1 92 -32 75 -140 -6 -38 -12 -81 -13 -95 -1 -14 -14 -25 -28 -25 -15 0 -27 -13 -27 -30 0 -16 -9 -30 -21 -30 -11 0 -26 -16 -32 -35 -7 -19 -30 -75 -53 -123 l-41 -88 -155 308 c-86 169 -156 315 -157 323 -1 18 110 1 157 -24z m2397 -191 c3 -2 -16 -29 -42 -59 -35 -40 -51 -48 -59 -28 -8 20 -11 18 -12 -6 -1 -18 -16 -38 -33 -45 -17 -6 -26 -21 -19 -32 7 -11 -3 -20 -21 -20 -20 0 -29 -11 -23 -27 7 -19 -5 -25 -43 -22 -29 3 -65 6 -79 7 -15 1 -21 11 -14 22 7 11 -1 20 -18 20 -16 0 -42 18 -58 40 -15 22 -33 35 -39 29 -6 -7 -17 -3 -24 9 -14 23 57 68 76 48 7 -7 13 -1 13 14 0 15 6 21 13 14 7 -8 25 -4 40 9 15 12 77 21 138 20 72 -2 107 4 98 18 -10 17 83 8 106 -11z m-2505 -250 c15 -68 50 -100 50 -46 1 30 4 31 19 7 11 -17 11 -35 2 -40 -9 -6 -20 -29 -24 -51 -5 -29 -26 -42 -73 -46 -35 -4 -60 -14 -54 -23 5 -10 -8 -13 -30 -7 -44 12 -52 36 -19 57 12 7 16 27 10 44 -7 17 4 54 23 83 19 29 36 59 38 67 2 8 4 20 6 26 6 29 40 -18 52 -71z"></path> <path d="M1060 5600 l0 -400 135 0 c271 1 271 2 97 364 -164 343 -171 365 -109 345 79 -25 154 -14 201 30 62 58 68 55 287 -158 l195 -189 -200 -193 -200 -193 387 -194 c396 -197 409 -207 356 -260 -66 -66 -91 -164 -52 -200 108 -97 123 19 123 921 l0 527 -610 0 -610 0 0 -400z m1049 116 c87 -101 73 -120 -81 -112 l-118 6 0 70 c0 145 91 161 199 36z m-84 -304 c38 -28 47 -72 16 -72 -10 0 -22 -47 -25 -105 l-6 -105 -39 45 c-22 25 -48 45 -59 45 -82 0 -89 66 -16 141 85 87 82 87 129 51z"></path> <path d="M1080 5050 c0 -70 8 -108 20 -100 11 7 20 52 20 100 0 48 -9 93 -20 100 -12 8 -20 -30 -20 -100z"></path> <path d="M1262 4979 c-104 -98 -185 -181 -180 -185 4 -3 247 -162 538 -354 292 -191 541 -356 555 -366 42 -31 30 33 -15 81 -22 24 -40 53 -40 64 0 12 -10 21 -21 21 -12 0 -17 7 -11 16 5 9 -12 40 -39 69 -27 30 -49 63 -49 74 0 12 -9 21 -20 21 -11 0 -20 14 -20 30 0 17 -9 30 -20 30 -11 0 -20 14 -20 31 0 17 -9 26 -20 19 -18 -11 -29 15 -22 55 1 8 -6 15 -16 15 -22 0 -114 143 -107 165 3 8 -3 15 -13 15 -10 0 -48 47 -84 105 -37 58 -78 117 -92 131 -13 14 -40 52 -60 85 -45 76 -27 85 -244 -122z m271 -41 c1 -10 3 -36 5 -58 1 -22 22 -60 47 -85 25 -25 42 -53 39 -62 -3 -10 11 -30 30 -45 20 -15 28 -27 19 -27 -10 -1 -7 -14 6 -29 17 -22 17 -32 -1 -43 -14 -9 -19 -7 -11 6 7 11 -10 26 -38 33 -31 8 -45 22 -37 36 10 15 3 18 -18 10 -18 -7 -39 -2 -46 10 -9 13 -5 17 9 8 63 -39 12 10 -59 57 -46 30 -75 43 -66 28 13 -22 9 -22 -18 0 -42 34 -44 80 -4 96 16 6 25 19 19 29 -6 10 3 12 20 6 17 -7 31 -2 31 10 0 12 14 22 31 22 19 0 26 10 17 25 -8 15 -7 18 4 8 10 -9 19 -25 21 -35z"></path> <path d="M1074 4660 c-17 -63 -18 -925 -2 -968 19 -50 44 -38 58 28 7 33 22 60 33 60 11 0 14 8 8 18 -6 10 0 23 14 29 14 5 7 11 -15 13 -40 3 -40 3 0 20 34 15 35 17 5 19 -30 1 -35 22 -35 141 0 130 25 186 46 105 5 -19 10 3 12 50 1 63 -6 85 -28 85 -39 0 -44 231 -5 247 20 8 20 10 0 11 -14 1 -25 18 -26 37 0 19 -12 62 -26 95 l-26 60 -13 -50z"></path> <path d="M1463 4005 c1 -8 83 -91 182 -185 l179 -170 -9 114 c-11 125 -3 147 38 113 20 -16 27 -15 27 6 0 17 24 30 62 33 34 3 75 18 91 34 17 17 49 31 73 33 24 2 -14 10 -86 18 -177 20 -561 23 -557 4z"></path> <path d="M3500 3123 c0 -52 357 -496 575 -715 88 -88 159 -127 80 -44 -14 14 -63 76 -109 136 -47 61 -108 137 -137 170 -29 33 -90 105 -136 159 -153 182 -273 312 -273 294z"></path> <path d="M1060 1615 c1 -355 25 -422 51 -141 8 80 20 146 27 146 33 0 24 240 -12 289 -61 84 -66 62 -66 -294z"></path> <path d="M4206 1613 c9 -30 278 -256 289 -244 13 13 -73 151 -131 211 -49 50 -173 76 -158 33z"></path> <path d="M2211 1428 c-21 -65 -51 -144 -67 -176 -15 -32 -28 -88 -28 -125 0 -37 -9 -72 -19 -79 -11 -7 -10 -23 4 -40 13 -15 21 -28 16 -28 -280 -19 -369 -29 -379 -44 -7 -11 -20 -18 -30 -17 -28 5 -270 -39 -354 -63 -141 -42 -32 -55 451 -56 l475 0 -1 295 c-1 162 -8 330 -15 373 l-14 77 -39 -117z"></path> <path d="M5096 1162 c-7 -51 2 -77 45 -123 33 -36 44 -59 28 -59 -15 0 -33 -10 -41 -23 -9 -14 -5 -18 9 -9 13 8 23 3 23 -13 0 -15 -28 -35 -62 -46 -34 -10 -59 -28 -56 -39 3 -11 -21 -26 -53 -33 -33 -7 61 -13 208 -15 157 -1 264 6 260 17 -4 10 -47 64 -97 120 -49 55 -127 143 -172 194 l-83 93 -9 -64z"></path> <path d="M3882 1035 c1 -93 6 -112 18 -75 23 73 23 200 0 200 -11 0 -19 -54 -18 -125z"></path> </g> </svg> 