<?xml version="1.0" encoding="UTF-8" standalone="no" ?>
<!DOCTYPE svg PUBLIC "-//W3C//DTD SVG 1.1//EN" "http://www.w3.org/Graphics/SVG/1.1/DTD/svg11.dtd">
<svg xmlns="http://www.w3.org/2000/svg" xmlns:xlink="http://www.w3.org/1999/xlink" version="1.1" width="1080" height="1080" viewBox="0 0 1080 1080" xml:space="preserve">
<desc>Created with Fabric.js 5.2.4</desc>
<defs>
</defs>
<g transform="matrix(1 0 0 1 540 540)" id="31dfdc23-ca99-413e-9f9c-0440ba50a0bb"  >
</g>
<g transform="matrix(1 0 0 1 540 540)" id="2275b76f-9206-479f-9e0d-c4489393d27f"  >
<rect style="stroke: none; stroke-width: 1; stroke-dasharray: none; stroke-linecap: butt; stroke-dashoffset: 0; stroke-linejoin: miter; stroke-miterlimit: 4; fill: rgb(255,255,255); fill-rule: nonzero; opacity: 1; visibility: hidden;" vector-effect="non-scaling-stroke"  x="-540" y="-540" rx="0" ry="0" width="1080" height="1080" />
</g>
<g transform="matrix(1 0 0 1 546.11 546.78)"  >
<path style="stroke: none; stroke-width: 1; stroke-dasharray: none; stroke-linecap: butt; stroke-dashoffset: 0; stroke-linejoin: miter; stroke-miterlimit: 4; fill: rgb(0,0,0); fill-opacity: 0.18; fill-rule: evenodd; opacity: 1;" vector-effect="non-scaling-stroke"  transform=" translate(-400, -400)" d="M 774.28571 400 C 774.299534605155 533.7286200736241 702.9641052216841 657.30487587516 587.1540265756666 724.1731770493234 C 471.343947929649 791.041478223487 328.6560560703512 791.041478223487 212.84597742433357 724.1731770493236 C 97.03589877831598 657.3048758751601 25.700469394845072 533.7286200736247 25.714293999999995 400.00000000000057 C 25.70046939484493 266.27137992637586 97.03589877831584 142.6951241248401 212.84597742433343 75.82682295067656 C 328.65605607035104 8.95852177651301 471.34394792964923 8.958521776513066 587.1540265756668 75.82682295067667 C 702.9641052216843 142.69512412484028 774.2995346051551 266.27137992637597 774.28571 400.0000000000001 z" stroke-linecap="round" />
</g>
<g transform="matrix(1 0 0 1 533.89 533.21)"  >
<path style="stroke: none; stroke-width: 1; stroke-dasharray: none; stroke-linecap: butt; stroke-dashoffset: 0; stroke-linejoin: miter; stroke-miterlimit: 4; fill: rgb(255,179,66); fill-rule: evenodd; opacity: 1;" vector-effect="non-scaling-stroke"  transform=" translate(-400, -400)" d="M 774.28571 400 C 774.299534605155 533.7286200736241 702.9641052216841 657.30487587516 587.1540265756666 724.1731770493234 C 471.343947929649 791.041478223487 328.6560560703512 791.041478223487 212.84597742433357 724.1731770493236 C 97.03589877831598 657.3048758751601 25.700469394845072 533.7286200736247 25.714293999999995 400.00000000000057 C 25.70046939484493 266.27137992637586 97.03589877831584 142.6951241248401 212.84597742433343 75.82682295067656 C 328.65605607035104 8.95852177651301 471.34394792964923 8.958521776513066 587.1540265756668 75.82682295067667 C 702.9641052216843 142.69512412484028 774.2995346051551 266.27137992637597 774.28571 400.0000000000001 z" stroke-linecap="round" />
</g>
<g transform="matrix(0.94 0 0 0.95 534.25 534.46)"  >
<path style="stroke: rgb(255,255,255); stroke-opacity: 0.75; stroke-width: 2.34; stroke-dasharray: none; stroke-linecap: butt; stroke-dashoffset: 0; stroke-linejoin: miter; stroke-miterlimit: 4; fill: none; fill-rule: evenodd; opacity: 0.5;" vector-effect="non-scaling-stroke"  transform=" translate(-400, -400)" d="M 774.28571 400 C 774.299534605155 533.7286200736241 702.9641052216841 657.30487587516 587.1540265756666 724.1731770493234 C 471.343947929649 791.041478223487 328.6560560703512 791.041478223487 212.84597742433357 724.1731770493236 C 97.03589877831598 657.3048758751601 25.700469394845072 533.7286200736247 25.714293999999995 400.00000000000057 C 25.70046939484493 266.27137992637586 97.03589877831584 142.6951241248401 212.84597742433343 75.82682295067656 C 328.65605607035104 8.95852177651301 471.34394792964923 8.958521776513066 587.1540265756668 75.82682295067667 C 702.9641052216843 142.69512412484028 774.2995346051551 266.27137992637597 774.28571 400.0000000000001 z" stroke-linecap="round" />
</g>
<g transform="matrix(0.88 0 0 0.89 532.12 532.49)"  >
<path style="stroke: rgb(255,255,255); stroke-opacity: 0.75; stroke-width: 2.48; stroke-dasharray: none; stroke-linecap: butt; stroke-dashoffset: 0; stroke-linejoin: miter; stroke-miterlimit: 4; fill: none; fill-rule: evenodd; opacity: 0.5;" vector-effect="non-scaling-stroke"  transform=" translate(-400, -400)" d="M 400 25.71875 C 193.39429 25.71875 25.71875 193.39429 25.71875 400 C 25.71875 606.60571 193.39429 774.28125 400 774.28125 C 606.60571 774.28125 774.28125 606.60571 774.28125 400 C 774.28125 193.39429 606.60571 25.71875 400 25.71875 z" stroke-linecap="round" />
</g>
<g transform="matrix(0.82 0 0 0.83 532.7 533.25)"  >
<path style="stroke: rgb(255,255,255); stroke-opacity: 0.75; stroke-width: 2.67; stroke-dasharray: none; stroke-linecap: butt; stroke-dashoffset: 0; stroke-linejoin: miter; stroke-miterlimit: 4; fill: none; fill-rule: evenodd; opacity: 0.5;" vector-effect="non-scaling-stroke"  transform=" translate(-400, -400)" d="M 400 25.71875 C 193.39429 25.71875 25.71875 193.39429 25.71875 400 C 25.71875 606.60571 193.39429 774.28125 400 774.28125 C 606.60571 774.28125 774.28125 606.60571 774.28125 400 C 774.28125 193.39429 606.60571 25.71875 400 25.71875 z" stroke-linecap="round" />
</g>
<g transform="matrix(0.74 0 0 0.75 532.32 533.12)"  >
<path style="stroke: rgb(255,255,255); stroke-opacity: 0.75; stroke-width: 2.95; stroke-dasharray: none; stroke-linecap: butt; stroke-dashoffset: 0; stroke-linejoin: miter; stroke-miterlimit: 4; fill: none; fill-rule: evenodd; opacity: 0.5;" vector-effect="non-scaling-stroke"  transform=" translate(-400, -400)" d="M 400 25.71875 C 193.39429 25.71875 25.71875 193.39429 25.71875 400 C 25.71875 606.60571 193.39429 774.28125 400 774.28125 C 606.60571 774.28125 774.28125 606.60571 774.28125 400 C 774.28125 193.39429 606.60571 25.71875 400 25.71875 z" stroke-linecap="round" />
</g>
<g transform="matrix(0.67 0 0 0.67 535.69 532.99)"  >
<path style="stroke: rgb(255,255,255); stroke-opacity: 0.75; stroke-width: 3.3; stroke-dasharray: none; stroke-linecap: butt; stroke-dashoffset: 0; stroke-linejoin: miter; stroke-miterlimit: 4; fill: none; fill-rule: evenodd; opacity: 0.5;" vector-effect="non-scaling-stroke"  transform=" translate(-400, -400)" d="M 400 25.71875 C 193.39429 25.71875 25.71875 193.39429 25.71875 400 C 25.71875 606.60571 193.39429 774.28125 400 774.28125 C 606.60571 774.28125 774.28125 606.60571 774.28125 400 C 774.28125 193.39429 606.60571 25.71875 400 25.71875 z" stroke-linecap="round" />
</g>
<g transform="matrix(0.59 0 0 0.59 533.97 531.5)"  >
<path style="stroke: rgb(255,255,255); stroke-opacity: 0.75; stroke-width: 3.72; stroke-dasharray: none; stroke-linecap: butt; stroke-dashoffset: 0; stroke-linejoin: miter; stroke-miterlimit: 4; fill: none; fill-rule: evenodd; opacity: 0.5;" vector-effect="non-scaling-stroke"  transform=" translate(-400, -400)" d="M 400 25.71875 C 193.39429 25.71875 25.71875 193.39429 25.71875 400 C 25.71875 606.60571 193.39429 774.28125 400 774.28125 C 606.60571 774.28125 774.28125 606.60571 774.28125 400 C 774.28125 193.39429 606.60571 25.71875 400 25.71875 z" stroke-linecap="round" />
</g>
<g transform="matrix(0.52 0 0 0.53 533.52 535)"  >
<path style="stroke: rgb(255,255,255); stroke-opacity: 0.75; stroke-width: 4.22; stroke-dasharray: none; stroke-linecap: butt; stroke-dashoffset: 0; stroke-linejoin: miter; stroke-miterlimit: 4; fill: none; fill-rule: evenodd; opacity: 0.5;" vector-effect="non-scaling-stroke"  transform=" translate(-400, -400)" d="M 400 25.71875 C 193.39429 25.71875 25.71875 193.39429 25.71875 400 C 25.71875 606.60571 193.39429 774.28125 400 774.28125 C 606.60571 774.28125 774.28125 606.60571 774.28125 400 C 774.28125 193.39429 606.60571 25.71875 400 25.71875 z" stroke-linecap="round" />
</g>
<g transform="matrix(0.46 0 0 0.46 535.45 533.38)"  >
<path style="stroke: rgb(255,255,255); stroke-opacity: 0.75; stroke-width: 4.82; stroke-dasharray: none; stroke-linecap: butt; stroke-dashoffset: 0; stroke-linejoin: miter; stroke-miterlimit: 4; fill: none; fill-rule: evenodd; opacity: 0.5;" vector-effect="non-scaling-stroke"  transform=" translate(-400, -400)" d="M 400 25.71875 C 193.39429 25.71875 25.71875 193.39429 25.71875 400 C 25.71875 606.60571 193.39429 774.28125 400 774.28125 C 606.60571 774.28125 774.28125 606.60571 774.28125 400 C 774.28125 193.39429 606.60571 25.71875 400 25.71875 z" stroke-linecap="round" />
</g>
<g transform="matrix(0.38 0 0 0.39 532.6 534.5)"  >
<path style="stroke: rgb(255,255,255); stroke-opacity: 0.75; stroke-width: 5.73; stroke-dasharray: none; stroke-linecap: butt; stroke-dashoffset: 0; stroke-linejoin: miter; stroke-miterlimit: 4; fill: none; fill-rule: evenodd; opacity: 0.5;" vector-effect="non-scaling-stroke"  transform=" translate(-400, -400)" d="M 400 25.71875 C 193.39429 25.71875 25.71875 193.39429 25.71875 400 C 25.71875 606.60571 193.39429 774.28125 400 774.28125 C 606.60571 774.28125 774.28125 606.60571 774.28125 400 C 774.28125 193.39429 606.60571 25.71875 400 25.71875 z" stroke-linecap="round" />
</g>
<g transform="matrix(0.31 0 0 0.31 534.86 533.25)"  >
<path style="stroke: rgb(255,255,255); stroke-width: 1.5; stroke-dasharray: none; stroke-linecap: butt; stroke-dashoffset: 0; stroke-linejoin: miter; stroke-miterlimit: 4; fill: rgb(255,255,255); fill-rule: evenodd; opacity: 1;" vector-effect="non-scaling-stroke"  transform=" translate(-400, -400)" d="M 400 25.71875 C 193.39429 25.71875 25.71875 193.39429 25.71875 400 C 25.71875 606.60571 193.39429 774.28125 400 774.28125 C 606.60571 774.28125 774.28125 606.60571 774.28125 400 C 774.28125 193.39429 606.60571 25.71875 400 25.71875 z" stroke-linecap="round" />
</g>
<g transform="matrix(0.03 0 0 0.03 533.57 532.8)"  >
<path style="stroke: rgb(255,255,255); stroke-width: 1.5; stroke-dasharray: none; stroke-linecap: butt; stroke-dashoffset: 0; stroke-linejoin: miter; stroke-miterlimit: 4; fill: rgb(0,0,0); fill-rule: evenodd; opacity: 1;" vector-effect="non-scaling-stroke"  transform=" translate(-400, -400)" d="M 400 25.71875 C 193.39429 25.71875 25.71875 193.39429 25.71875 400 C 25.71875 606.60571 193.39429 774.28125 400 774.28125 C 606.60571 774.28125 774.28125 606.60571 774.28125 400 C 774.28125 193.39429 606.60571 25.71875 400 25.71875 z" stroke-linecap="round" />
</g>
<g transform="matrix(NaN NaN NaN NaN 0 0)"  >
<g style=""   >
</g>
</g>
</svg>